<svg xmlns="http://www.w3.org/2000/svg" viewBox="0 0 512 512" fill="none">
  <path d="M371.6 189.9V131.3c16.8-8.8 28.2-26.4 28.2-46.6 0-29.1-23.6-52.7-52.7-52.7-29.1 0-52.7 23.6-52.7 52.7 0 20.2 11.5 37.8 28.2 46.6v58.6c-21.5 5.6-41 16.3-56.8 31.1L141.4 126c2.5-6.8 4-14.1 4-21.8 0-35.3-28.7-64-64-64S17.4 68.9 17.4 104.2s28.7 64 64 64c11.8 0 22.7-3.3 32.2-8.9L237 254.4c-13.8 20.4-21.9 45-21.9 71.6 0 71.5 58 129.5 129.5 129.5s129.5-58 129.5-129.5c0-63.2-45.4-115.9-105.5-127.1zM344.6 401c-41.4 0-75-33.6-75-75s33.6-75 75-75 75 33.6 75 75-33.6 75-75 75z" fill="#FF7A59"/>
</svg>
