<svg xmlns="http://www.w3.org/2000/svg" viewBox="0 0 300 195" fill="none">
  <path d="M124.8 18.7c12.8-13.4 30.6-21.7 50.3-21.7 26.3 0 49.2 14.7 61.1 36.3 10.4-4.5 21.8-7.1 33.8-7.1 46.8 0 84.7 38 84.7 84.9s-37.9 84.9-84.7 84.9c-7.3 0-14.4-.9-21.1-2.7-10.5 17.1-29.2 28.5-50.5 28.5-10.5 0-20.3-2.7-28.8-7.6-11.1 21.2-33.4 35.6-59 35.6-28.8 0-53.3-18.4-62.5-44.1C25.1 199.6 7 179.9 7 157c0-23.4 16-43.2 37.6-48.9-2-7.3-3.1-14.9-3.1-22.9C41.5 38.1 82 0 131.4 0c21.3 0 40.8 7.4 56.2 19.8" fill="#00A1E0"/>
</svg>
