<svg width="40" height="41" viewBox="0 0 40 41" fill="none" xmlns="http://www.w3.org/2000/svg">
<path d="M0 5.20911C0 2.42928 2.25351 0.175781 5.03333 0.175781H34.9666C37.7465 0.175781 40 2.42928 40 5.20911V35.1425C40 37.9223 37.7465 40.1758 34.9666 40.1758H5.03333C2.25351 40.1758 0 37.9223 0 35.1425V5.20911Z" fill="#6E58F1"/>
<path d="M5.77344 17.095C5.77344 13.6447 8.55981 10.8477 11.997 10.8477H12.3549C13.8089 10.8477 14.9875 12.0308 14.9875 13.4903V20.6997C14.9875 22.1593 13.8089 23.3423 12.3549 23.3423H11.997C8.55981 23.3423 5.77344 20.5454 5.77344 17.095Z" fill="white"/>
<path d="M16.4062 11.9526C16.4062 11.2826 16.7982 10.675 17.4074 10.4011L26.467 6.32634C27.5876 5.82235 28.8533 6.64534 28.8533 7.87791V26.4506C28.8533 27.6911 27.5727 28.5141 26.4506 27.9946L17.3909 23.8018C16.7907 23.5241 16.4062 22.9211 16.4062 22.2578V21.3979C16.4062 20.6906 16.8426 20.0571 17.5019 19.8073L22.5513 17.8941C23.2817 17.6173 23.2817 16.5802 22.5513 16.3034L17.5019 14.3902C16.8426 14.1403 16.4062 13.5069 16.4062 12.7995V11.9526Z" fill="white"/>
<path d="M34.2182 18.5853V18.2067C34.2182 16.1156 32.5295 14.4204 30.4465 14.4204C30.3422 14.4204 30.2578 14.5051 30.2578 14.6097V22.1823C30.2578 22.2868 30.3422 22.3716 30.4465 22.3716C32.5295 22.3716 34.2182 20.6764 34.2182 18.5853Z" fill="white"/>
<path d="M11.9922 25.7605C11.9922 25.3887 12.2924 25.0874 12.6627 25.0874H16.1711C16.5415 25.0874 16.8417 25.3887 16.8417 25.7605V31.7405C16.8417 33.0847 15.7561 34.1745 14.417 34.1745C13.0778 34.1745 11.9922 33.0847 11.9922 31.7405V25.7605Z" fill="white"/>
</svg>
